<svg xmlns="http://www.w3.org/2000/svg" viewBox="0 0 597 586"><defs><style>.cls-1{fill:#fff;}.cls-2{fill:#010101;}</style></defs><g id="Layer_2" data-name="Layer 2"><g id="Layer_1-2" data-name="Layer 1"><path class="cls-1" d="M597,293C590.31,683.7,6.65,683.64,0,293,6.69-97.7,590.35-97.63,597,293Z"/><path class="cls-2" d="M220.28,214h74.64v5.94H227.45v44.59h63.89v5.95H227.45v48.74h68.66v5.94H220.89V214Zm81.19,0h7.78l35.23,48.74c19.42-27.66,63.26-84,84.77-110.56l-80,115.92,41.21,57.06H382.1L344.48,273.4l-37.62,51.72H298.5l41.79-57.06Zm91.94,5.94V214h84.77v5.94h-39.4V325.12H432.2V219.9ZM127.16,214h8.35L253.13,389.9c-29.71-37.61-91.62-127.11-118.81-167.62l-.61,102.84h-6.58V214ZM477.59,317.39a2.38,2.38,0,0,1,0-4.76,2.38,2.38,0,0,1,0,4.76Zm6.56-6.55h3.58c9,14,7.23-13.17,7.16-17.25h3.59v17.25c.45,10.54-14.58,9.39-14.33,0Zm19.71,0h3.58c4.49,9.93,20.61-3,3.58-4.15-19.55-6.26,8.83-23.24,10.75-6.55h-3.58c-.66-4.83-9.78-4.71-9.55,0,.67,5.6,15.13,3.43,13.72,10.7.74,10.81-19.18,9.1-18.5,0Z"/></g></g></svg>