<svg id="Layer_1" data-name="Layer 1" xmlns="http://www.w3.org/2000/svg" width="2500" height="2490" viewBox="0 0 621.92 574.98"><defs><style>.cls-1{fill:#fff;stroke:#231f20;stroke-miterlimit:10;}.cls-2{fill:#010101;}</style></defs><ellipse class="cls-1" cx="310.96" cy="287.49" rx="310.46" ry="286.99"/><path class="cls-2" d="M621.75,402.15c-13.91,3.54-22.52.16-30.24-11.43l-54.9-76-7.94-10.51L464.55,391c-7.32,10.43-15,15-28.68,11.28L518,292l-76.44-99.56c13.15-2.56,22.23-1.25,30.3,10.52l56.95,76.9,57.36-76.48c7.35-10.44,15.25-14.41,28.45-10.56L585,232.16l-40.16,52.29c-4.78,6-4.12,10.06.28,15.83Zm-382.35-112,6.72-33C264.4,191.79,339.34,164.62,391,205c30.2,23.76,37.7,57.36,36.21,95H257c-2.55,67.76,46.22,108.66,108.4,87.8,21.81-7.33,34.66-24.41,41.09-45.78,3.26-10.71,8.66-12.38,18.73-9.32-5.14,26.72-16.73,49-41.23,63-36.61,20.91-88.86,14.15-116.35-14.92-16.37-16.86-23.14-38.23-26.17-61.08-.48-3.78-1.44-7.37-2.15-11q.09-9.28.09-18.55Zm17.9-4.54H411.14c-1-49-31.51-83.8-73.21-84.1C292.15,201.19,259.29,235.17,257.3,285.65Z" transform="translate(-119.57 -9.48)"/></svg>