<?xml version="1.0" encoding="utf-8"?>
<!-- Generator: Adobe Illustrator 24.3.0, SVG Export Plug-In . SVG Version: 6.00 Build 0)  -->
<svg version="1.1" id="Layer_1" xmlns="http://www.w3.org/2000/svg" xmlns:xlink="http://www.w3.org/1999/xlink" x="0px" y="0px"
	 viewBox="0 0 841.9 595.3" style="enable-background:new 0 0 841.9 595.3;" xml:space="preserve">
<style type="text/css">
	.st0{fill:#FFFFFF;}
	.st1{fill:#010101;}
</style>
<g>
	<path class="st0" d="M738,297.3c-6.7,390.7-590.4,390.6-597,0C147.7-93.4,731.4-93.4,738,297.3z"/>
	<path class="st1" d="M361.3,240.2h74.6v5.9h-67.5v44.6h63.9v5.9h-63.9v48.7h68.7v5.9h-75.2V240.2H361.3z M442.5,240.2h7.8
		l35.2,48.7c19.4-27.7,63.3-84,84.8-110.6l-80,115.9l41.2,57.1h-8.4l-37.6-51.7l-37.6,51.7h-8.4l41.8-57.1L442.5,240.2z
		 M534.4,246.2v-5.9h84.8v5.9h-39.4v105.2h-6.6V246.2H534.4z M268.2,240.2h8.4l117.6,175.9c-29.7-37.6-91.6-127.1-118.8-167.6
		l-0.6,102.8h-6.6L268.2,240.2L268.2,240.2z M618.6,343.6c-3-0.1-3-4.7,0-4.8C621.6,339,621.6,343.6,618.6,343.6L618.6,343.6z
		 M625.2,337.1h3.6c9,14,7.2-13.2,7.2-17.2h3.6v17.2C639.9,347.6,624.9,346.5,625.2,337.1L625.2,337.1z M644.9,337.1h3.6
		c4.5,9.9,20.6-3,3.6-4.1c-19.6-6.3,8.8-23.2,10.7-6.5h-3.6c-0.7-4.8-9.8-4.7-9.6,0c0.7,5.6,15.1,3.4,13.7,10.7
		C664.1,347.9,644.2,346.2,644.9,337.1L644.9,337.1z"/>
</g>
</svg>
