<svg id="Layer_1" data-name="Layer 1" xmlns="http://www.w3.org/2000/svg" viewBox="0 0 404.35 373.86"><defs><style>.cls-1{fill:#fff;stroke:#231f20;stroke-miterlimit:10;}.cls-2{fill:#010101;}</style></defs><ellipse class="cls-1" cx="202.18" cy="186.93" rx="201.68" ry="186.43"/><path class="cls-2" d="M384.13,239.34h62.65v5h-56.9v37.55h53.5v5h-53.5V328.1h57.55v5h-63.3Zm68.26,0H459l29.5,41.23,30.15-41.23,41-52.37L492.32,284.9l34.74,48.19h-6.95l-31.57-43.87-31.71,43.86H450l35-48.19Zm77.12,5v-5h71.38v5H568v88.76h-5.74V244.33H529.51Zm-223.74-5H313l99,148.43-40.9-54.68-59.28-86.66-.27,86.66h-5.74Zm294.55,87.24a2.09,2.09,0,1,1,2-2.13v.05a2,2,0,0,1-2,2.08Zm5.64-5.49H609a2.81,2.81,0,0,0,2.81,2.8h.23c2,0,3.14-1.2,3.14-3.46V306.13h3.12v14.31c0,4.07-2.34,6.41-6.22,6.41-3.65,0-6.15-2.27-6.15-5.75Zm16.46-.18h3.11c.26,1.92,2.13,3.14,4.83,3.14,2.51,0,4.35-1.31,4.35-3.1,0-1.54-1.17-2.46-3.84-3.09l-2.62-.66c-3.64-.86-5.31-2.62-5.31-5.59,0-3.6,2.93-6,7.33-6,4.1,0,7.09,2.4,7.27,5.8h-3c-.29-1.86-1.91-3-4.26-3s-4.11,1.19-4.11,3c0,1.44,1.06,2.27,3.68,2.89l2.22.54c4.14,1,5.84,2.62,5.84,5.69,0,3.87-3,6.29-7.77,6.29-4.47,0-7.47-2.31-7.69-5.93Z" transform="translate(-261.51 -100.44)"/></svg>