<?xml version="1.0" encoding="utf-8"?>
<!-- Generator: Adobe Illustrator 24.3.0, SVG Export Plug-In . SVG Version: 6.00 Build 0)  -->
<svg version="1.1" id="Layer_1" xmlns="http://www.w3.org/2000/svg" xmlns:xlink="http://www.w3.org/1999/xlink" x="0px" y="0px"
	 viewBox="0 0 841.89 595.28" style="enable-background:new 0 0 841.89 595.28;" xml:space="preserve">
<style type="text/css">
	.st0{fill:#FFFFFF;}
	.st1{fill:#010101;}
</style>
<g>
	<path class="st0" d="M575.42,322.5c-2.97,174.18-262.06,174.15-265.01-0.01C313.38,148.32,572.47,148.35,575.42,322.5z"/>
	<path class="st1" d="M408.2,297.06h33.13v2.65h-29.95v19.88h28.36v2.65h-28.36v21.73h30.48v2.65h-33.39v-49.56H408.2z
		 M444.24,297.06h3.45l15.64,21.73c8.62-12.33,28.08-37.46,37.63-49.29l-35.51,51.68l18.29,25.44h-3.71l-16.7-23.06l-16.7,23.06
		h-3.71l18.55-25.44L444.24,297.06z M485.05,299.71v-2.65h37.63v2.65h-17.49v46.91h-2.92v-46.91H485.05z M366.86,297.06h3.71
		l52.21,78.44c-13.19-16.77-40.67-56.67-52.74-74.73l-0.27,45.85h-2.92V297.06z M522.42,343.17c-1.35-0.04-1.35-2.08,0-2.12
		C523.77,341.09,523.77,343.13,522.42,343.17L522.42,343.17z M525.33,340.25h1.59c3.98,6.22,3.21-5.87,3.18-7.69h1.59v7.69
		C531.89,344.95,525.22,344.44,525.33,340.25L525.33,340.25z M534.08,340.25h1.59c1.99,4.43,9.15-1.33,1.59-1.85
		c-8.68-2.79,3.92-10.36,4.77-2.92h-1.59c-0.29-2.15-4.34-2.1-4.24,0c0.3,2.5,6.72,1.53,6.09,4.77
		C542.62,345.07,533.78,344.31,534.08,340.25L534.08,340.25z"/>
</g>
</svg>
